<svg xmlns="http://www.w3.org/2000/svg" viewBox="0 0 140 24"><path d="M67.8,2.3c-5.4,4-7.5,7.5-7.5,12a5.94,5.94,0,0,1,2.6-.7A4.48,4.48,0,0,1,67.5,18v.5c0,3.2-2.5,5.4-6,5.4-4.1,0-6.3-2.9-6.3-8.3,0-6,2.5-9.8,10.5-15.7Zm17,0c-5.4,4.1-7.5,7.5-7.5,12a4.84,4.84,0,0,1,2.6-.7A4.48,4.48,0,0,1,84.5,18v.5c0,3.2-2.5,5.4-6,5.4-4.1,0-6.3-2.9-6.3-8.3,0-6,2.5-9.8,10.5-15.7Z" transform="translate(0 0.1)" fill="#c8c8c8"/><line y1="15.1" x2="40" y2="15.1" fill="none" stroke="#c8c8c8" stroke-miterlimit="10"/><line x1="100" y1="15.1" x2="140" y2="15.1" fill="none" stroke="#c8c8c8" stroke-miterlimit="10"/></svg>